HIERARCHY
ROOT Root
{
  OFFSET 0.0 0.0 0.0
  CHANNELS 6 Xposition Yposition Zposition Zrotation Yrotation Xrotation
  JOINT Hips
  {
    OFFSET 0.0 100.0 0.0
    CHANNELS 6 Xposition Yposition Zposition Zrotation Yrotation Xrotation
    JOINT Spine1
    {
      OFFSET -0.013727 5.003763 -0.053727
      CHANNELS 3 Zrotation Yrotation Xrotation
      JOINT Spine2
      {
        OFFSET -0.0 7.125301 -0.029825
        CHANNELS 3 Zrotation Yrotation Xrotation
        JOINT Chest
        {
          OFFSET -1e-06 7.550063 -0.815971
          CHANNELS 3 Zrotation Yrotation Xrotation
          JOINT Neck1
          {
            OFFSET -0.181677 26.311295 -0.553348
            CHANNELS 3 Zrotation Yrotation Xrotation
            JOINT Neck2
            {
              OFFSET -3e-06 7.709397 2.302585
              CHANNELS 3 Zrotation Yrotation Xrotation
              JOINT Head
              {
                OFFSET -5e-06 6.128916 1.953709
                CHANNELS 3 Zrotation Yrotation Xrotation
                JOINT HeadEnd
                {
                  OFFSET 0.003598 16.065403 -1.835379
                  CHANNELS 3 Zrotation Yrotation Xrotation
                }
                JOINT Jaw
                {
                  OFFSET 0.002637 0.475592 3.094941
                  CHANNELS 3 Zrotation Yrotation Xrotation
                }
                JOINT LeftEye
                {
                  OFFSET 3.206381 5.380205 7.586883
                  CHANNELS 3 Zrotation Yrotation Xrotation
                }
                JOINT RightEye
                {
                  OFFSET -3.22244 5.361869 7.558234
                  CHANNELS 3 Zrotation Yrotation Xrotation
                }
              }
            }
          }
          JOINT LeftShoulder
          {
            OFFSET 1.621652 23.237164 5.113413
            CHANNELS 3 Zrotation Yrotation Xrotation
            JOINT LeftArm
            {
              OFFSET 14.919846 2e-06 -5.502326
              CHANNELS 3 Zrotation Yrotation Xrotation
              JOINT LeftForeArm
              {
                OFFSET 28.739307 0.0 -0.002588
                CHANNELS 3 Zrotation Yrotation Xrotation
                JOINT LeftHand
                {
                  OFFSET 27.093981 -1e-06 0.002609
                  CHANNELS 3 Zrotation Yrotation Xrotation
                  JOINT LeftHandThumb1
                  {
                    OFFSET 2.276482 -1.392045 3.191413
                    CHANNELS 3 Zrotation Yrotation Xrotation
                    JOINT LeftHandThumb2
                    {
                      OFFSET 4.012836 -1.828127 1.641654
                      CHANNELS 3 Zrotation Yrotation Xrotation
                      JOINT LeftHandThumb3
                      {
                        OFFSET 2.798515 0.0 -3e-06
                        CHANNELS 3 Zrotation Yrotation Xrotation
                        JOINT LeftHandThumbEnd
                        {
                          OFFSET 3.180793 -4e-06 4e-06
                          CHANNELS 3 Zrotation Yrotation Xrotation
                        }
                      }
                    }
                  }
                  JOINT LeftHandIndex1
                  {
                    OFFSET 3.247555 -0.531998 2.296169
                    CHANNELS 3 Zrotation Yrotation Xrotation
                    JOINT LeftHandIndex2
                    {
                      OFFSET 6.364578 0.01206 0.1786
                      CHANNELS 3 Zrotation Yrotation Xrotation
                      JOINT LeftHandIndex3
                      {
                        OFFSET 3.662364 0.0 0.0
                        CHANNELS 3 Zrotation Yrotation Xrotation
                        JOINT LeftHandIndex4
                        {
                          OFFSET 2.329242 4e-06 4e-06
                          CHANNELS 3 Zrotation Yrotation Xrotation
                          JOINT LeftHandIndexEnd
                          {
                            OFFSET 2.759615 -0.180537 -0.113024
                            CHANNELS 3 Zrotation Yrotation Xrotation
                          }
                        }
                      }
                    }
                  }
                  JOINT LeftHandMiddle1
                  {
                    OFFSET 3.163495 0.240981 1.000332
                    CHANNELS 3 Zrotation Yrotation Xrotation
                    JOINT LeftHandMiddle2
                    {
                      OFFSET 6.19078 -0.259278 -1.002548
                      CHANNELS 3 Zrotation Yrotation Xrotation
                      JOINT LeftHandMiddle3
                      {
                        OFFSET 4.35652 -4e-06 -1e-06
                        CHANNELS 3 Zrotation Yrotation Xrotation
                        JOINT LeftHandMiddle4
                        {
                          OFFSET 2.996877 -8e-06 0.0
                          CHANNELS 3 Zrotation Yrotation Xrotation
                          JOINT LeftHandMiddleEnd
                          {
                            OFFSET 2.304287 -0.294569 -0.031741
                            CHANNELS 3 Zrotation Yrotation Xrotation
                          }
                        }
                      }
                    }
                  }
                  JOINT LeftHandRing1
                  {
                    OFFSET 2.882643 -0.053652 -0.322543
                    CHANNELS 3 Zrotation Yrotation Xrotation
                    JOINT LeftHandRing2
                    {
                      OFFSET 5.854541 -0.486202 -1.373841
                      CHANNELS 3 Zrotation Yrotation Xrotation
                      JOINT LeftHandRing3
                      {
                        OFFSET 4.350578 0.0 3e-06
                        CHANNELS 3 Zrotation Yrotation Xrotation
                        JOINT LeftHandRing4
                        {
                          OFFSET 2.651321 7e-06 2e-06
                          CHANNELS 3 Zrotation Yrotation Xrotation
                          JOINT LeftHandRingEnd
                          {
                            OFFSET 1.936105 0.077687 -7.1e-05
                            CHANNELS 3 Zrotation Yrotation Xrotation
                          }
                        }
                      }
                    }
                  }
                  JOINT LeftHandPinky1
                  {
                    OFFSET 2.8655 -0.310005 -1.600378
                    CHANNELS 3 Zrotation Yrotation Xrotation
                    JOINT LeftHandPinky2
                    {
                      OFFSET 5.087849 -1.331141 -1.77123
                      CHANNELS 3 Zrotation Yrotation Xrotation
                      JOINT LeftHandPinky3
                      {
                        OFFSET 3.070974 4e-06 0.0
                        CHANNELS 3 Zrotation Yrotation Xrotation
                        JOINT LeftHandPinky4
                        {
                          OFFSET 1.549672 0.0 1e-06
                          CHANNELS 3 Zrotation Yrotation Xrotation
                          JOINT LeftHandPinkyEnd
                          {
                            OFFSET 1.944893 -0.157802 0.057219
                            CHANNELS 3 Zrotation Yrotation Xrotation
                          }
                        }
                      }
                    }
                  }
                }
              }
            }
          }
          JOINT RightShoulder
          {
            OFFSET -1.380118 23.180309 5.214158
            CHANNELS 3 Zrotation Yrotation Xrotation
            JOINT RightArm
            {
              OFFSET -15.037196 1.2e-05 -5.545604
              CHANNELS 3 Zrotation Yrotation Xrotation
              JOINT RightForeArm
              {
                OFFSET -28.736639 2e-06 -0.002597
                CHANNELS 3 Zrotation Yrotation Xrotation
                JOINT RightHand
                {
                  OFFSET -27.133619 -0.0 0.002613
                  CHANNELS 3 Zrotation Yrotation Xrotation
                  JOINT RightHandThumb1
                  {
                    OFFSET -2.274032 -1.383988 3.163127
                    CHANNELS 3 Zrotation Yrotation Xrotation
                    JOINT RightHandThumb2
                    {
                      OFFSET -4.011429 -1.827466 1.640914
                      CHANNELS 3 Zrotation Yrotation Xrotation
                      JOINT RightHandThumb3
                      {
                        OFFSET -2.794935 -4e-06 -3e-06
                        CHANNELS 3 Zrotation Yrotation Xrotation
                        JOINT RightHandThumbEnd
                        {
                          OFFSET -3.183852 4e-06 1e-06
                          CHANNELS 3 Zrotation Yrotation Xrotation
                        }
                      }
                    }
                  }
                  JOINT RightHandIndex1
                  {
                    OFFSET -3.253266 -0.520057 2.282866
                    CHANNELS 3 Zrotation Yrotation Xrotation
                    JOINT RightHandIndex2
                    {
                      OFFSET -6.341917 0.012471 0.178266
                      CHANNELS 3 Zrotation Yrotation Xrotation
                      JOINT RightHandIndex3
                      {
                        OFFSET -3.654871 -8e-06 -0.0
                        CHANNELS 3 Zrotation Yrotation Xrotation
                        JOINT RightHandIndex4
                        {
                          OFFSET -2.327586 0.0 1e-06
                          CHANNELS 3 Zrotation Yrotation Xrotation
                          JOINT RightHandIndexEnd
                          {
                            OFFSET -2.76179 -0.180656 -0.113078
                            CHANNELS 3 Zrotation Yrotation Xrotation
                          }
                        }
                      }
                    }
                  }
                  JOINT RightHandMiddle1
                  {
                    OFFSET -3.168106 0.246593 1.00103
                    CHANNELS 3 Zrotation Yrotation Xrotation
                    JOINT RightHandMiddle2
                    {
                      OFFSET -6.180828 -0.258836 -1.000895
                      CHANNELS 3 Zrotation Yrotation Xrotation
                      JOINT RightHandMiddle3
                      {
                        OFFSET -4.348901 0.0 -0.0
                        CHANNELS 3 Zrotation Yrotation Xrotation
                        JOINT RightHandMiddle4
                        {
                          OFFSET -3.00024 -4e-06 -2e-06
                          CHANNELS 3 Zrotation Yrotation Xrotation
                          JOINT RightHandMiddleEnd
                          {
                            OFFSET -2.30252 -0.29437 -0.031706
                            CHANNELS 3 Zrotation Yrotation Xrotation
                          }
                        }
                      }
                    }
                  }
                  JOINT RightHandRing1
                  {
                    OFFSET -2.88569 -0.067952 -0.308858
                    CHANNELS 3 Zrotation Yrotation Xrotation
                    JOINT RightHandRing2
                    {
                      OFFSET -5.854198 -0.48613 -1.373731
                      CHANNELS 3 Zrotation Yrotation Xrotation
                      JOINT RightHandRing3
                      {
                        OFFSET -4.33881 -4e-06 -0.0
                        CHANNELS 3 Zrotation Yrotation Xrotation
                        JOINT RightHandRing4
                        {
                          OFFSET -2.654903 -4e-06 4e-06
                          CHANNELS 3 Zrotation Yrotation Xrotation
                          JOINT RightHandRingEnd
                          {
                            OFFSET -1.933568 0.077527 -5.2e-05
                            CHANNELS 3 Zrotation Yrotation Xrotation
                          }
                        }
                      }
                    }
                  }
                  JOINT RightHandPinky1
                  {
                    OFFSET -2.866425 -0.342796 -1.584145
                    CHANNELS 3 Zrotation Yrotation Xrotation
                    JOINT RightHandPinky2
                    {
                      OFFSET -5.091371 -1.332055 -1.772385
                      CHANNELS 3 Zrotation Yrotation Xrotation
                      JOINT RightHandPinky3
                      {
                        OFFSET -3.062664 -4e-06 1e-06
                        CHANNELS 3 Zrotation Yrotation Xrotation
                        JOINT RightHandPinky4
                        {
                          OFFSET -1.546529 4e-06 -2e-06
                          CHANNELS 3 Zrotation Yrotation Xrotation
                          JOINT RightHandPinkyEnd
                          {
                            OFFSET -1.945119 -0.157718 0.057211
                            CHANNELS 3 Zrotation Yrotation Xrotation
                          }
                        }
                      }
                    }
                  }
                }
              }
            }
          }
        }
      }
    }
    JOINT LeftLeg
    {
      OFFSET 10.043214 -8.434526 2.595655
      CHANNELS 3 Zrotation Yrotation Xrotation
      JOINT LeftShin
      {
        OFFSET -1e-06 -43.221752 -0.802913
        CHANNELS 3 Zrotation Yrotation Xrotation
        JOINT LeftFoot
        {
          OFFSET 1e-06 -42.155094 -3.481523
          CHANNELS 3 Zrotation Yrotation Xrotation
          JOINT LeftToeBase
          {
            OFFSET 0.0 -5.059472 13.231529
            CHANNELS 3 Zrotation Yrotation Xrotation
            JOINT LeftToeEnd
            {
              OFFSET -0.009607 -1.647619 6.513017
              CHANNELS 3 Zrotation Yrotation Xrotation
            }
          }
        }
      }
    }
    JOINT RightLeg
    {
      OFFSET -10.047278 -8.29526 2.620317
      CHANNELS 3 Zrotation Yrotation Xrotation
      JOINT RightShin
      {
        OFFSET 1e-06 -43.362206 -0.805556
        CHANNELS 3 Zrotation Yrotation Xrotation
        JOINT RightFoot
        {
          OFFSET 2e-06 -42.117393 -3.478398
          CHANNELS 3 Zrotation Yrotation Xrotation
          JOINT RightToeBase
          {
            OFFSET -0.0 -5.079609 13.284196
            CHANNELS 3 Zrotation Yrotation Xrotation
            JOINT RightToeEnd
            {
              OFFSET 0.009532 -1.634378 6.460591
              CHANNELS 3 Zrotation Yrotation Xrotation
            }
          }
        }
      }
    }
  }
}
MOTION
Frames: 4
Frame Time: 0.03333333333333333
0.0 0.0 0.0 0.0 -0.0 0.0 3.454799 99.710289 159.107498 -3.745859 3.383481 2.102232 4.616449 0.765851 0.076926 0.287928 1.63792 -4.763944 0.394628 -0.931792 8.600927 0.569126 2.460851 5.709481 -1.168212 -1.434692 -3.631991 -1.535829 -1.655903 -2.171639 7.7e-05 -2.3e-05 6e-06 0.009691 -0.039923 -0.051948 0.746295 -3.754339 -10.710955 -0.733317 3.678747 -10.680017 -32.694424 5.685743 17.820196 -42.73608 -5.442801 23.769899 0.408445 -32.430462 0.053144 14.681053 6.325143 -0.222428 -5.882108 9.861288 0.702591 -10.936873 -0.360574 7.156206 0.0 8.774828 0.0 -16.54627 18.026339 5.754429 -1.844033 2.498504 -2.507278 -10.163603 4.678946 4.621109 -20.976027 -4e-06 3e-06 -21.226288 2.451699 -3.594001 0.0 -5e-06 -0.0 -1.362682 2.240798 -0.746323 -21.334919 0.58491 3.008325 -13.821217 -3e-06 2e-06 -23.887175 -0.249078 -0.839483 -60.086731 2.362966 -1.220175 -0.294025 1.679687 0.833256 -14.218212 0.093214 1.300581 -34.212063 -0.287565 0.96717 -20.033218 0.964537 1.212842 -0.0 0.0 0.0 -3.44039 0.788234 0.501655 -15.928189 -3.16731 2.999706 -6.338828 -1e-06 2e-06 -18.123447 3.648184 -4.905669 -3e-06 -0.0 -3e-06 21.253658 7.950659 17.610683 46.683498 13.232934 9.469254 0.061921 42.04203 -0.017318 -16.385473 -11.340071 0.376797 2.243543 -5.255039 -3.180161 14.2829 -0.826597 6.952505 -1e-06 -12.690617 1e-06 16.316576 -17.593248 2.360728 1.665669 -1.955923 -2.878301 4.727801 -4.170592 4.993927 11.020536 2e-06 -3e-06 12.109063 -3.735719 -2.866789 0.0 0.0 -0.0 1.291988 -1.928552 -1.498091 14.800139 0.567466 3.865606 14.242585 -1.341738 -6.660666 19.631985 0.143927 -0.648251 49.287212 -0.589606 -6.376894 0.35303 -1.51115 -0.031938 20.222805 3.684311 2.316626 18.787289 5e-06 -8e-06 10.751636 -0.479869 1.397905 0.0 0.0 -2e-06 3.27381 0.305945 -0.580112 21.486828 11.830384 2.266128 8.162932 2e-06 -2e-06 18.399097 -3.798985 -4.940584 3e-06 1e-06 -1e-06 4.6354 14.160585 -22.853361 0.230014 0.485607 30.818052 -1.554776 8.197065 5.758729 1.768911 -2.036566 -3.314162 -0.0 0.0 2e-06 5.941925 -6.676379 -4.231402 0.008276 -0.152079 7.024978 -1.336113 -8.093829 -5.557319 -1.463199 0.924831 0.384598 -0.0 0.0 -1e-06 
0.0 0.0 0.0 0.0 -0.0 0.0 3.398283 99.46685 161.663559 -4.139044 3.247882 2.630812 4.840041 0.646415 0.014596 0.317265 1.712453 -4.785342 0.548282 -0.776337 8.639762 0.279381 2.552231 5.705439 -1.099664 -1.30208 -3.634244 -1.725636 -1.499931 -2.275634 7.7e-05 -2.2e-05 6e-06 0.014149 -0.015383 -0.042808 0.755043 -3.730029 -10.722331 -0.733855 3.7026 -10.695069 -32.656425 5.780633 17.740276 -43.46376 -4.881741 24.080917 0.318096 -32.369389 0.085048 14.635555 6.435961 -0.69545 -5.882111 9.861292 0.70259 -10.936881 -0.360576 7.156209 1e-06 8.774832 -2e-06 -16.505936 17.958824 5.751502 -1.844035 2.498507 -2.507278 -10.16361 4.678948 4.621112 -20.976044 -4e-06 4e-06 -21.226305 2.451699 -3.594001 0.0 -6e-06 -1e-06 -1.362682 2.240799 -0.746324 -21.334934 0.584909 3.008327 -13.821228 -3e-06 4e-06 -23.887192 -0.249079 -0.839483 -60.012501 2.37861 -1.160945 -0.294025 1.679689 0.833256 -14.218223 0.093214 1.30058 -34.212082 -0.287565 0.967172 -20.033232 0.964536 1.212844 0.0 -0.0 0.0 -3.440392 0.788233 0.501657 -15.928201 -3.167312 2.99971 -6.338832 -1e-06 1e-06 -18.123463 3.648185 -4.905673 -4e-06 -1e-06 -2e-06 20.653461 8.37588 17.313503 46.150005 14.346462 8.602517 -0.018563 43.894905 -0.038343 -16.636965 -11.127215 0.681798 2.243545 -5.255038 -3.180159 14.282896 -0.826597 6.9525 -2e-06 -12.69061 2e-06 16.301563 -17.738178 2.381884 1.665668 -1.955921 -2.878299 4.727801 -4.170592 4.993925 11.020532 3e-06 -5e-06 12.109058 -3.735717 -2.866786 0.0 -0.0 -0.0 1.291986 -1.92855 -1.49809 14.800132 0.567466 3.865603 14.242579 -1.341736 -6.660663 19.631973 0.143928 -0.648248 49.328358 -0.615035 -6.398143 0.353029 -1.511153 -0.03194 20.222797 3.68431 2.316625 18.787281 3e-06 -5e-06 10.751633 -0.479867 1.397905 0.0 -1e-06 1e-06 3.273808 0.305947 -0.580113 21.48682 11.830382 2.266129 8.162929 3e-06 -3e-06 18.39909 -3.798986 -4.94058 4e-06 1e-06 -1e-06 3.589706 14.349469 -23.829609 0.237794 0.559508 20.203714 -1.319843 7.960415 8.41604 1.736367 -2.038595 -2.976547 0.0 -1e-06 2e-06 6.342991 -6.978556 -2.677722 -0.017141 -0.107673 6.149751 -1.106468 -7.667226 -6.840194 -1.46484 0.934971 0.518957 -0.0 0.0 -1e-06 
0.0 0.0 0.0 0.0 -0.0 0.0 3.405115 99.152626 164.313812 -4.566289 3.117409 3.112649 4.962994 0.559276 -0.106171 0.35082 1.705016 -4.830647 0.762951 -0.669256 8.666666 0.150675 2.583133 5.750073 -1.056127 -1.174445 -3.652791 -1.880108 -1.237015 -2.271971 7.7e-05 -2.2e-05 6e-06 0.018139 0.001692 -0.03812 0.7741 -3.712085 -10.749723 -0.745838 3.718293 -10.719571 -32.455948 5.85389 17.703474 -44.274132 -4.417308 24.13459 0.208721 -32.32053 0.063881 14.58727 6.440647 -0.94617 -5.88211 9.861289 0.702592 -10.936878 -0.360575 7.156211 1e-06 8.77483 0.0 -16.458349 17.855022 5.762588 -1.844032 2.498505 -2.507277 -10.163605 4.678947 4.621113 -20.976034 -3e-06 6e-06 -21.226292 2.451701 -3.593999 -0.0 -6e-06 -1e-06 -1.362682 2.240799 -0.746325 -21.334929 0.584911 3.008326 -13.821221 -2e-06 5e-06 -23.887182 -0.249077 -0.839481 -60.004784 2.340486 -1.064924 -0.294025 1.679688 0.833256 -14.218215 0.093215 1.300583 -34.212067 -0.287561 0.967175 -20.033226 0.964539 1.212845 0.0 -0.0 1e-06 -3.44039 0.788234 0.501656 -15.928194 -3.16731 2.999711 -6.338829 -1e-06 3e-06 -18.123455 3.648185 -4.905671 -4e-06 0.0 -2e-06 20.100536 8.714635 17.057627 45.848141 15.293422 7.823346 -0.061214 45.369602 -0.069002 -16.730499 -10.949097 1.112228 2.243543 -5.25504 -3.180159 14.282894 -0.826593 6.952502 -4e-06 -12.690609 -1e-06 16.290487 -17.811256 2.428718 1.665668 -1.955922 -2.878298 4.727798 -4.170587 4.993923 11.020529 5e-06 -4e-06 12.109056 -3.735715 -2.866788 -0.0 -0.0 -1e-06 1.291987 -1.92855 -1.49809 14.800132 0.567469 3.865604 14.242579 -1.341735 -6.660663 19.631975 0.143929 -0.648245 49.427155 -0.680109 -6.383232 0.353029 -1.51115 -0.03194 20.222797 3.684314 2.316627 18.787279 7e-06 -3e-06 10.751631 -0.479866 1.397905 -0.0 -0.0 1e-06 3.273808 0.305946 -0.580112 21.486824 11.830379 2.266131 8.16293 2e-06 -2e-06 18.399086 -3.798981 -4.940579 3e-06 1e-06 -1e-06 2.539737 14.646646 -24.454977 0.163012 0.55372 10.113397 -1.666168 7.375639 11.183596 1.691273 -2.017355 -2.629389 -0.0 0.0 2e-06 6.690149 -7.408207 -0.744705 -0.035025 -0.110903 4.820352 -0.749477 -7.167638 -7.988469 -1.466487 0.933358 0.600004 0.0 -0.0 -1e-06 
0.0 0.0 0.0 0.0 -0.0 0.0 3.481026 98.779388 167.094986 -4.852957 2.969927 3.567562 4.893807 0.478809 -0.325389 0.372991 1.680199 -4.907609 0.961922 -0.636407 8.687123 0.135291 2.593537 5.826504 -1.046322 -1.016963 -3.656308 -1.986854 -1.023034 -2.141222 7.7e-05 -2.3e-05 6e-06 0.018162 0.009169 -0.03572 0.783879 -3.703506 -10.76429 -0.756729 3.725013 -10.732194 -32.328552 5.894423 17.635689 -44.809029 -4.03282 24.126379 0.153917 -32.144417 -0.00454 14.322474 6.322927 -0.991107 -5.882112 9.861292 0.702591 -10.936878 -0.360573 7.156208 -1e-06 8.77483 1e-06 -16.486382 17.782774 5.761312 -1.844034 2.498507 -2.507277 -10.163608 4.67895 4.62111 -20.976038 0.0 1e-06 -21.226301 2.451702 -3.594003 -0.0 -6e-06 -0.0 -1.362683 2.2408 -0.746324 -21.334929 0.584914 3.008324 -13.821221 -0.0 2e-06 -23.887182 -0.249075 -0.839487 -60.137482 2.30689 -0.985316 -0.294026 1.679688 0.833256 -14.218217 0.093217 1.30058 -34.21207 -0.28756 0.967168 -20.033226 0.964539 1.212841 -2e-06 0.0 -0.0 -3.440391 0.788234 0.501655 -15.928198 -3.167309 2.999708 -6.338829 -0.0 1e-06 -18.123457 3.648187 -4.905674 -5e-06 -0.0 -3e-06 19.834736 8.954708 16.928152 45.635777 16.017616 7.061526 0.02921 46.3358 -0.078801 -16.728699 -10.70073 1.439752 2.243545 -5.25504 -3.180157 14.282896 -0.826599 6.952504 -0.0 -12.69061 0.0 16.257381 -17.84173 2.487609 1.665665 -1.955921 -2.878298 4.727799 -4.170591 4.993925 11.020531 0.0 -1e-06 12.109058 -3.73572 -2.866783 -0.0 -0.0 -1e-06 1.291987 -1.928551 -1.49809 14.800132 0.567465 3.865608 14.242579 -1.341739 -6.660661 19.631973 0.143923 -0.648248 49.502724 -0.779236 -6.378873 0.35303 -1.511151 -0.031939 20.222801 3.684307 2.316631 18.787281 3e-06 -3e-06 10.751633 -0.47987 1.397904 0.0 -0.0 2e-06 3.273808 0.305946 -0.58011 21.486818 11.830378 2.266131 8.162928 0.0 -2e-06 18.399094 -3.798992 -4.940581 3e-06 1e-06 -1e-06 1.440135 14.61975 -25.071318 0.069507 0.478387 2.052919 -2.907538 6.787071 12.748924 1.639495 -1.990542 -2.522149 0.0 -0.0 2e-06 6.823137 -7.902346 1.392442 -0.035754 -0.15774 3.319981 -0.290109 -6.591195 -9.045656 -1.470158 0.902133 0.565743 0.0 -0.0 -1e-06 
